<svg xmlns="http://www.w3.org/2000/svg" xmlns:xlink="http://www.w3.org/1999/xlink" fill="none" height="100" viewBox="0 0 528.65 262.02" width="100"><defs><clipPath id="ac"><path transform="translate(-369.52 -252.82)" d="M0 500h500V0H0z"></path></clipPath><clipPath id="at"><path transform="translate(-409.94 -246.4)" d="M0 500h500V0H0z"></path></clipPath><clipPath id="ar"><path transform="translate(-181.16 -274.26)" d="M0 500h500V0H0z"></path></clipPath><clipPath id="aq"><path transform="translate(-145.45 -261.57)" d="M0 500h500V0H0z"></path></clipPath><clipPath id="ap"><path transform="translate(-125.14 -256.25)" d="M0 500h500V0H0z"></path></clipPath><clipPath id="ao"><path transform="translate(-285.72 -305.15)" d="M0 500h500V0H0z"></path></clipPath><clipPath id="an"><path transform="translate(-296.94 -276.8)" d="M0 500h500V0H0z"></path></clipPath><clipPath id="am"><path transform="translate(-317.59 -279.35)" d="M0 500h500V0H0z"></path></clipPath><clipPath id="al"><path transform="translate(-302.34 -280.44)" d="M0 500h500V0H0z"></path></clipPath><clipPath id="ak"><path transform="translate(-227.54 -330.43)" d="M0 500h500V0H0z"></path></clipPath><clipPath id="aj"><path transform="translate(-225.77 -316.82)" d="M0 500h500V0H0z"></path></clipPath><clipPath id="ai"><path transform="translate(-252.85 -355.08)" d="M0 500h500V0H0z"></path></clipPath><clipPath id="ah"><path transform="translate(-295.77 -330.39)" d="M0 500h500V0H0z"></path></clipPath><clipPath id="ag"><path transform="translate(-328.2 -292.55)" d="M0 500h500V0H0z"></path></clipPath><clipPath id="af"><path transform="translate(-330.55 -300.14)" d="M0 500h500V0H0z"></path></clipPath><clipPath id="ae"><path transform="translate(-339.44 -271.41)" d="M0 500h500V0H0z"></path></clipPath><clipPath id="ad"><path transform="translate(-399.02 -247.48)" d="M0 500h500V0H0z"></path></clipPath><clipPath id="as"><path transform="translate(-175.56 -280.73)" d="M0 500h500V0H0z"></path></clipPath><clipPath id="ab"><path transform="translate(-284.61 -276.7)" d="M0 500h500V0H0z"></path></clipPath><clipPath id="aa"><path transform="translate(-251.82 -259.51)" d="M0 500h500V0H0z"></path></clipPath><clipPath id="z"><path transform="translate(-238 -250.66)" d="M0 500h500V0H0z"></path></clipPath><clipPath id="y"><path transform="translate(-197.01 -251.98)" d="M0 500h500V0H0z"></path></clipPath><clipPath id="x"><path transform="translate(-243.21 -321.93)" d="M0 500h500V0H0z"></path></clipPath></defs><g fill="#fcb100"><path transform="matrix(1.2167 0 0 -1.2167 458.93 158.28)" d="M0 0c-1.351 2.8-3.857 4.246-6.052 6.318-2.741 2.589-2.794 5.436-4.789 8.242-1.29 1.815-3.151 2.565-5.148 3.381-3.01 1.228-4.979 1.515-6.388 5.214-.536 1.409-.544 2.928-1.156 4.328-2.516 5.755-9.156 6.4-14.136 8.886-4.781 2.387-6.256 5.739-7.889 10.493-.518 1.508-1.015 2.925-2.676 3.482-2.749.922-7.162-.839-9.761-1.407l-.552-.115c-1.514 2.821-5.245 4.171-8.076 5.311-3.41 1.373-7.038 2.48-9.193 5.685-1.44 2.142-2.08 4.358-4.118 6.119-4.039 3.492-9.876 4.142-13.593 8.07-1.989 2.103-3.01 4.921-4.878 7.14a22.691 22.691 0 0 1-5.076 4.461c-.586.79-1.262 1.52-1.986 2.179-.043.28-.15.564-.276.815-2.436 4.841-7.648 7.251-11.085 11.24-2.079 2.412-2.927 5.695-5.431 7.747-1.701 1.394-3.825 2.02-5.91 2.573-3.534.939-7.451 1.146-9.595 4.598-1.483 2.387-1.61 5.315-3.447 7.535-2.981 3.604-7.757 3.285-12.021 3.112-3.186-.13-6.714-.515-9.411 1.497-1.334.995-2.197 2.968-4.034 3.167-2.219.24-5.516-2.228-7.285-3.265-2.689-1.577-5.196-3.393-7.249-5.761-1.888-2.178-3.251-4.731-4.878-7.095-2.794-4.057-6.191-6.553-10.055-9.468-5.11-3.856-7.715-8.735-11.225-13.946-4.96-7.365-13.483-10.844-19.285-17.459-5.387-6.142-9.92-16.463-17.637-19.94-.56 2.785-1.673 4.557-5.338 3.614-6.035-1.552-11.884-5.977-16.057-10.466-2.54-2.732-4.641-5.875-7.379-8.424-3.266-3.04-7.426-4.57-11.054-7.07-7.145-4.923-9.2-13.76-17.035-18.111-7.284-4.046-13.669-7.484-18.799-14.27-.051-.068.059-.148.116-.089.132.133.268.253.399.384.041-.042.1-.068.17-.031 4.691 2.453 9.142 4.591 14.271 6 4.016 1.104 6.967 2.299 10.226 4.814 2.408 1.858 4.384 2.401 7.127 3.237 1.147.349 2.228.725 3.139 1.539.872.781 1.245 1.779 1.771 2.789 1.578 3.028 3.096 4.589 6.536 5.931 2.207.861 4.859 1.141 6.148 3.455.61 1.095.309 1.896.558 3.018.974 4.388 3.063 5.603 7.04 6.963 2.847.973 5.704 1.66 7.504 4.287 2.393 3.493 1.404 9.525 4.881 12.202-1.014-1.747-1.206-3.888-1.104-6.091.127-2.725 1.453-5.858.551-8.558-1.057-3.164-4.649-4.142-7.138-5.793-4.444-2.95-3.967-8.193-8.015-11.43-4.155-3.323-9.405-4.543-12.85-8.804-.059-.072.035-.173.104-.104 4.262 4.263 10.441 4.678 15.108 8.246 4.042 3.091 4.688 8.186 9.353 10.69 3.191 1.713 6.023 3.246 6.984 6.995 1.367 5.334-2.144 10.209.044 15.47 1.75-.471.982-1.424 1.402-3.539.383-1.93 1.14-3.651 2.599-5.015 1.527-1.427 3.269-1.961 5.293-2.242 2.357-.327 3.67.097 5.546-1.667 2.054-1.929 1.564-3.763 2.06-6.318.764-3.933 2.975-6.034 6.794-7.087 2.327-.642 4.828-.636 7.116-1.425.483-.166.9-.361 1.275-.574-.004-.017-.013-.031-.016-.049-.811-5.164-7.127-7.306-8.869-12.302-1.302-3.733-.138-7.731 1.339-11.23l.003-.012h.002c.021-.048.039-.099.06-.148.286-.671 1.276-.174 1.131.477-.631 2.835-.545 5.869 1.106 8.376 1.507 2.286 4.037 3.356 6.087 5.032 1.318 1.077 2.428 2.2 2.896 3.538.182-.502.386-1.008.637-1.514 1.175-2.367 2.872-3.434 5.358-4.206 2.73-.848 4.783-2.225 6.516-4.527.719-.954 1.142-2.072 1.981-2.95 4.582-4.794 12.107-1.018 17.013-5.243.407-.35.954.188.592.591-3.852 4.292-10.061 1.815-14.672 4.429-3.082 1.748-3.417 5.203-5.984 7.387-.837.712-1.82.998-2.765 1.501-2.887 1.539-4.81 3.066-6.002 6.091-1.922 4.883-3.115 7.398-8.647 8.574-2.872.61-6.418.479-8.64 2.604-2.542 2.431-1.332 6.248-3 9.16-.979 1.709-2.412 2.508-4.296 2.912-1.422.304-2.942.036-4.376.304-3.82.713-5.99 2.961-6.503 6.831a33.468 33.468 0 0 1-.236 1.533c6.637 1.145 10.865 8.478 14.722 13.37.239.304.493.589.757.863-.42-1.262-.646-2.671-.96-4.307-.939-4.888-3.973-8.91-8.558-10.933-.13-.058-.035-.257.095-.225 3.323.829 6.281 2.601 8.212 5.486 1.003 1.499 1.874 3.358 2.135 5.153.098.67.027 1.337.057 2.006.094 2.162.387 3.413 1.163 4.653 1.524 1.101 3.2 2.013 4.8 3 2.895 1.785 5.654 3.853 8.898 4.984 3.52 1.229 7.227 1.039 10.804 1.897 4.827 1.158 6.3 4.846 8.47 8.235-.072-.268-.154-.534-.216-.802-.749-3.271-1.116-6.214-3.515-8.778-2.198-2.35-4.696-3.169-7.516-4.464-1.839-.844-3.123-1.61-4.401-3.177-2.39-2.93-3.842-4.443-7.428-5.984-4.176-1.795-7.167-4.141-9.37-8.194-.077-.142.12-.249.212-.124 2.555 3.491 5.513 5.401 9.671 6.457 1.916.487 3.847.648 5.636 1.572 2.054 1.062 2.57 2.494 4.205 4.016 2.08 1.936 5.216 2.248 7.698 3.501 3.332 1.682 6.301 4.405 7.711 7.922.935 2.331.897 4.743 1.245 7.195.349 2.465 1.183 4.374 2.261 6.295 4.076 1.648 9.461 2.313 10.018 7.33.547 4.931-.328 9.568 1.017 14.546 1.455 5.383 4.306 9.913 8.849 13.196.128.02.265.018.396.031a17.805 17.805 0 0 1-.587-1.016c-2.176-1.995-3.676-4.52-4.197-7.594-.825-4.859 2.013-8.591 2.727-13.211.997-6.441-4.565-8.357-6.716-13.36-.707-1.643-.676-2.906-.436-4.61.41-2.921 2.228-2.387.278-7.066-.796-1.908-2.711-3.603-4.11-5.057-.961-.999.343-2.904 1.547-2.005 3.98 2.971 7.84 6.009 10.614 10.207 1.325 2.004 1.585 3.013 1.459 5.332-.201 3.683-.961 5.142 1.259 8.509 2.113 3.205 4.523 6.005 3.34 10.073-.658 2.263-2.268 4-3.457 5.98-2.546 4.239-2.959 8.655-.84 13.066.299.255.607.502.931.737.036-.005.068-.003.103-.007.143-.181.299-.349.45-.522-.106-3.68 1.432-6.623 4.614-8.689 2.543-1.651 5.905-2.055 7.322-4.846 1.194-2.352-.235-4.551.879-6.982.605-1.322 1.599-2.063 2.839-2.762.853-.481 1.953-.582 2.84-1.008.681-2.373.497-4.578-.436-7.02-.647-1.694-1.614-3.395-1.47-5.264.245-3.188 3.584-4.618 4.16-7.678.071-.374.605-.255.628.085.112 1.588-.467 2.493-1.321 3.812-2.105 3.25-.595 5.663.807 8.869.358.817.578 1.594.702 2.347.07-.133.137-.269.213-.391 2.279-3.648 7.449-2.681 10.219-5.774.45-.502 1.378.024 1.151.67-1.27 3.618-5.556 3.14-7.827 5.767-1.832 2.12-.965 3.82-2.151 6.126-.853 1.66-2.032 1.982-3.473 2.931-3.104 2.044-2.003 3.038-2.641 6.068-.298 1.415-.961 2.492-2.087 3.404-5.151 4.174-11.9 2.615-14.472 9.791.227-.233.456-.463.699-.68 1.718-1.374 3.779-1.852 5.925-2.054 3.505-.33 7.597.706 10.958-.532 4.975-1.832 4.269-6.874 6.67-10.598 3.992-6.19 12.827-3.607 17.294-9.143 2.282-2.828 3.556-5.389 6.467-7.738 1.808-1.459 3.581-2.839 5.294-4.292 1.515-2.758 2.507-5.66 2.801-8.798.185-1.97.194-3.695 1.121-5.492.755-1.461 1.828-2.343 3.108-3.378 3.065-2.481 4.947-4.969 4.574-9.129-.04-.445.569-.525.779-.211 2.599 3.882 1.541 8.675-1.675 11.808-2.405 2.342-3.059 4.611-3.966 7.423.227-.197.461-.395.708-.601 2.791-2.332 4.072-4.657 5.725-7.793 2.885-5.475 7.704-6.686 12.829-9.467 5.179-2.81 6.042-8.49 11.176-11.224 2.087-1.111 4.393-1.735 6.623-2.481 2.733-.916 4.647-2.058 6.668-3.653-2.47-.488-4.971-.982-7.296-1.877-4.536-1.747-7.412-5.258-10.299-8.83-7.003 3.22-13.514 5.614-18.718 11.862-2.234 2.683-3.887 5.849-6.317 8.367-2.475 2.563-5.686 3.795-8.671 5.614-3.832 2.335-7.095 5.608-9.595 9.319-1.347 1.999-2.38 4.075-4.369 5.537-4.602 3.383-10.595 1.755-14.988-1.172-6.642-4.424-10.678-11.347-18.259-14.546-2.757-1.164-5.305-2.167-7.64-4.1-3.183-2.634-5.507-5.971-9.038-8.246-2.684-1.73-5.738-2.815-8.369-4.638a18.934 18.934 0 0 1-2.066-1.676c-1.457-.589-2.952-1.075-4.524-1.404-2.656-.557-5.494-.578-8.052-1.565-1.843-.711-3.195-1.86-4.677-3.116-2.976-2.525-5.859-4.078-9.603-5.193-.316-.094-.261-.58.078-.58 6.63-.001 10.171 5.869 16.386 6.948 2.525.438 4.826.77 6.986 1.36a46.18 46.18 0 0 0-1.872-1.938c-2.485-2.397-5.739-3.724-8.715-5.377-1.468-.816-2.921-1.698-4.162-2.84-.629-.578-1.165-1.258-1.44-1.824-1.119-.963-2.124-1.981-2.961-3.042-.105-.133-.014-.409.192-.328 3.134 1.232 6.03 3.122 9.023 4.708.505.257 1.012.51 1.518.765 3.254 1.564 6.691 2.677 9.966 4.182a90.9 90.9 0 0 0 4.296 1.376c-.342-.224-.678-.455-1.031-.665-4.165-2.481-8.605-4.363-12.436-7.379-.044-.035.013-.105.06-.078 5.035 2.923 10.97 3.381 16.012 6.333a33.523 33.523 0 0 1 5.154 3.702c2.982.585 6.006 1.132 8.809 2.347.356.154.682.324 1.006.495-.609-1.745-1.077-3.171-2.984-4.572-.924-.68-2.049-1.24-3.087-1.711-4.675-2.121-9.282-.201-12.908-4.234-2.214-2.463-3.756-3.769-7.161-4.51-2.197-.477-4.048-.769-6.006-1.897-.143-.082-.049-.32.114-.269 4.154 1.287 8.926-.72 12.784 1.625 2.809 1.707 3.2 3.852 7.027 4.254 1.743.183 3.077.183 4.51.435-1.442-1.748-2.742-3.69-4.517-5.062-3.291-2.542-7.279-3.477-10.405-6.409-.082-.078.023-.209.12-.155 4.394 2.472 9.603 2.479 13.677 5.554 2.336 1.764 4.713 4.575 5.429 7.536 3.045 1.378 5.775 3.206 7.133 6.44 1.102 2.624 1.139 5.441 2.51 8.007.19.357.398.696.615 1.026l.153.162c1.662 1.733 3.778 2.578 5.996 3.197-.674-1.142-1.037-2.373-1.345-3.747-.812-3.63-1.881-5.424-4.845-7.779-.061-.049.006-.14.072-.124 2.181.548 4.26 1.337 5.772 3.095 1.674 1.948 1.987 4.632 3.503 6.67 1.309 1.759 3.758 3.128 5.606 4.803.854.552 1.639 1.229 2.303 2.124 1.98 2.664 1.786 5.912 2.174 9.037.54 4.339 2.142 8.155 4.948 11.195.249-1.128.797-2.263 1.408-3.27.296-.487.604-.948.915-1.396-2.389-5.762.518-14.126-5.478-18.017-2.121-1.376-4.456-2.205-5.957-4.361-1.904-2.733-1.902-5.765-4.841-7.944-5.224-3.873-11.607-5.538-16.434-10.192-4.899-4.725-4.494-9.844-2.569-16.001.39-1.248 2.255-.736 1.959.54-2.487 10.716 12.02 10.998 18.303 14.266 1.94 1.009 3.846 2.343 5.12 4.152 2.009 2.853 1.741 6.273 4.859 8.406 4.013 2.747 7.641 3.324 8.25 8.913 0 5.816-1.371 11.591-2.321 17.373-.11.675-.195 1.351-.292 2.026 2.397-3.266 4.855-5.837 4.728-10.654-.005-.177.233-.186.29-.039 1.182 3.054 1.533 6.487.118 9.545-.799 1.727-2.048 3.162-3.078 4.742-.825 1.267-1.2 2.574-1.634 3.889a8.794 8.794 0 0 0 2.876-1.248c3.207-2.117 4.419-6.349 6.739-9.376 3.896-5.084 9.322-7.012 14.558-10.324 5.458-3.451 8.345-9.795 13.5-13.76 4.093-3.149 9.426-6.091 14.75-6.474-1.17-1.429-2.373-2.836-3.72-4.109-2.589-2.447-5.537-4.27-8.465-6.127-4.393-2.088-9.314-2.193-13.494-4.76-3.776-2.318-6.148-6.362-9.607-9.116-.241-.192.071-.587.328-.425 4.235 2.686 7.387 7.056 12.231 8.716 1.624.556 3.136.985 4.579 1.431a27.434 27.434 0 0 1-2.958-2.786c-5.922-6.522-10.749-12.54-19.418-15.568-.121-.042-.072-.211.052-.189 7.679 1.35 12.7 6.082 17.702 10.979 1.392.81 2.853 1.479 4.39 1.902 3.14.863 6.426.221 9.579.937 6.194 1.407 7.911 8.28 13.602 9.963 4.687 1.385 9.495-.843 12.763 3.87 1.681 2.423 2.24 5.497 3.697 8.05 1.577 2.762 3.562 4.815 6.081 6.229-.804-1.773-.667-3.879-.313-5.994-2.814-1.955-4.263-5.706-5.479-8.778-1.299-3.282-2.632-6.312-5.742-8.256-2.252-1.408-4.854-2.14-7.036-3.677-3.613-2.545-4.893-6.738-6.546-10.65-1.207-2.86-3.361-5.958-1.15-8.676.524-.644 1.815-.136 1.713.71-.889 7.39 8.218 9.737 14.339 13.356a13.85 13.85 0 0 0-1.48-2.473c-1.171-1.563-2.546-3.02-3.349-4.825-1.049-2.359-.924-4.423.777-6.366.143-.163.444.009.37.216-1.612 4.479 2.12 7.619 4.317 10.977.857 1.311 1.51 2.718 1.848 4.191.642.536 1.206 1.108 1.654 1.733 4.465 6.228 3.408 14.769 5.58 21.878.061.199.125.397.191.594.332-1.968.835-3.937.915-5.637.093-1.958.167-3.449.948-5.319.449-1.073 1.579-2.165 1.866-3.246.961-3.634-.666-7.105-3.274-9.395-.411-.361.18-.919.592-.591 3.525 2.806 5.425 6.124 4.201 10.626-.579 2.13-1.683 3.562-1.67 5.966.01 1.845.86 3.589.662 5.471-.101.955-.336 1.822-.596 2.662.303-.622.624-1.229.952-1.819 1.111-1.999 2.898-3.611 3.978-5.57 1.606-2.913.208-5.089.65-8.018a4.989 4.989 0 0 1 1.131-2.468c.555-.645 1.365-.835 1.885-1.402 1.271-1.387 1.935-3.529 2.013-5.446.162-3.983-.026-6.767 1.982-10.511.136-.253.505-.03.383.224-1.887 3.911-.992 6.664.273 10.434.431 1.283.975 2.61.807 3.99-.173 1.427-.748 2.15-1.586 3.227-1.402 1.802-2.114 2.695-2.499 5.136-.498 3.157-1.574 4.519-3.639 7.032-1.429 1.738-2.38 3.556-3.167 5.409.124-.178.243-.358.376-.532a17.256 17.256 0 0 1 4.757-4.251c3.035-1.843 6.654-2.364 9.787-3.975 4.97-2.554 4.565-5.89 6.498-10.3.854-1.948 2.146-3.127 3.991-4.151 3.582-1.989 5.903-2.153 7.854-6.164C-9.564 5.593-5.279 3.002-1.12-.864-.51-1.432.349-.723 0 0" clip-path="url(#at)"></path><path transform="matrix(1.2167 0 0 -1.2167 173.76 116.51)" d="M0 0c-2.843.5-5.152.026-7.269-2.055-2.536-2.494-6.917-3.352-8.585-6.62-1.266-2.481-.689-4.372-3.688-6.077-1.227-.697-2.261-.764-3.356-1.76-1.69-1.539-2.329-4.311-3.262-6.748-.8-1.422-1.632-2.871-2.953-4.05-.045-.04-.071-.082-.098-.125a4.93 4.93 0 0 0-2.201-.575c-.158-.005-.211-.262-.039-.289.984-.159 1.892-.133 2.737.099a.55.55 0 0 1 .257.041c.094.041.173.093.264.136.337.133.666.295.981.507 2.898 1.709 4.655 4.309 7.936 5.722 1.264.545 1.87.445 2.901 1.487 1.269 1.284 1.177 3.034 3.151 3.776 1.783.67 3.214-.441 4.254 1.783 1.386 2.959-1.063 3.552 1.667 7.654C-5.628-4.577-2.32-2.829.147-1.125.538-.856.566-.1 0 0" clip-path="url(#as)"></path><path transform="matrix(1.2167 0 0 -1.2167 180.56 124.39)" d="M0 0c-2.556-4.523-9.985-1.672-10.363-8.21-.162-2.8 1.471-3.257-1.951-6.031-.99-.802-2.448-1.219-3.609-1.754-2.483-1.147-4.828-2.26-6.937-4.027-.137-.115.037-.299.178-.232 4.864 2.304 13.37 1.508 16.492 6.768.212-.331.434-.656.609-1.016.845-1.729.527-3.489-.07-5.231-.156-.455.473-.632.72-.303 1.195 1.596 2.337 3.381 1.525 5.416-.379.951-1.161 1.638-1.629 2.533-.16.305-.278.623-.378.945.023.487-.003.987.041 1.629.21 3.023 1.332 3.554 3.558 5.216C-.27-3.145.794-2.219.963-.261 1.007.262.24.425 0 0" clip-path="url(#ar)"></path><path transform="matrix(1.2167 0 0 -1.2167 137.11 139.83)" d="M0 0c-2.381-4.851-9.466-3.583-13.323-6.917-2.404-2.078-4.598-2.65-7.647-3.483-1.94-.53-3.29-1.387-4.613-2.896-.232-.263.117-.608.382-.383 5.807 4.937 6.676-.002 11.184 1.713 2.274.865 2.825 3.324 4.513 4.74C-6.312-4.548.006-5.382.275-.074.282.068.064.131 0 0" clip-path="url(#aq)"></path><path transform="matrix(1.2167 0 0 -1.2167 112.4 146.3)" d="M0 0c-2.605-.498-5.855-1.006-8.226-2.235-.993-.515-1.741-1.24-2.567-1.966-1.62-1.425-3.227-1.894-5.286-2.43-.053-.014-.043-.098.013-.097 3.023.074 4.079-.926 6.597 1.203 1.295 1.096 2.192 2.313 3.778 3.057C-3.85-1.604-1.764-1.214.131-.474.424-.36.315.06 0 0" clip-path="url(#ap)"></path><path transform="matrix(1.2167 0 0 -1.2167 307.79 86.794)" d="M0 0c-.024.075-.153.068-.145-.02.232-2.646.865-5.557.596-8.2-.435-4.265-2.717-5.587-5.728-7.957-1.138-.895-2.198-1.701-2.865-3.017-1.236-2.439-.38-4.919-2.385-7.273-2.847-3.343-8.221-3.145-11.376-6.297-2.959-2.955-4.033-7.269-6.62-10.516-.438-.55.096-1.363.775-1.004 4.848 2.563 5.13 8.959 10.831 10.416 5.174 1.322 9.646 1.691 11.882 7.302 1.149 2.884.723 5.038 2.954 7.411C-.628-17.61.897-16.82 1.92-14.883 4.437-10.118 1.51-4.624 0 0" clip-path="url(#ao)"></path><path transform="matrix(1.2167 0 0 -1.2167 321.44 121.29)" d="M0 0c-.867 1.561-1.68 1.422-2.208 3.42-.607 2.298.573 2.874 1.058 5.009.095.42-.435.623-.674.284C-2.958 7.107-4.723 5.324-5 3.284c-.161-1.176.408-1.754.439-2.844.119-4.286-1.041-3.706-3.291-6.112-1.43-1.529-2.592-3.303-2.016-5.502.198-.756.918-1.32 1.109-2.006.532-1.922-1.581-2.61-3.292-3.673-.16-.1-.059-.377.133-.315 1.865.608 5.637 1.048 6.499 3.261.264.677-.095 1.143.024 1.804.085.469-.543 1.205-.441 1.732.25 1.295 3.058 2.799 3.938 3.687C-.187-4.959 1.375-2.474 0 0" clip-path="url(#an)"></path><path transform="matrix(1.2167 0 0 -1.2167 346.56 118.19)" d="M0 0c-.656 2.17-2.289 4.014-3.909 5.566-1.735 1.662-4.613 2.494-5.792 4.422-.906 1.482-.654 3.326-2.187 4.439-1.875 1.362-4.311.158-6.296 1.382-.123.076-.239-.092-.149-.193 1.119-1.263 2.832-1.411 3.998-2.473 1.579-1.436.626-4.073 1.992-5.73 1.232-1.495 3.283-2.081 4.925-2.961 2.529-1.356 4.073-3.335 6.143-5.194C-.733-1.228.231-.765 0 0" clip-path="url(#am)"></path><path transform="matrix(1.2167 0 0 -1.2167 328.01 116.86)" d="M0 0c-.985 2.805-.474 6.143-1.53 8.824-.466 1.182-1.092 1.528-1.845 2.421-1.672 1.98-3.414 3.36-4.524 5.844-1.123 2.512-1.684 4.375-3.813 6.339-.098.09-.277-.029-.193-.149 3.187-4.559-.636-9.719 3.33-13.922 2.125-2.252 2.664-4.386 3.773-7.002C-3.156-1.524 1.635.306-.099-7.204c-.099-.432.538-.61.665-.183C1.38-4.642.918-2.614 0 0" clip-path="url(#al)"></path><path transform="matrix(1.2167 0 0 -1.2167 236.99 56.038)" d="M0 0c-2.094-4.008-6.934-4.941-9.473-8.561-1.383-1.973-1.404-4.132-2.037-6.348-1.157-4.045-4.569-5.41-8.06-7.053-1.683-.793-3.372-1.379-4.588-2.886a7.793 7.793 0 0 1-.353-.476c-2.999-1.069-5.784-2.123-8.406-4.403-4.356-3.787-11.266-3.165-16.354-6.091-.166-.096-.02-.339.149-.255 3.916 1.949 7.176 1.879 11.385 2 1.51.043 2.82.264 4.085 1.153.942.661 1.54 1.784 2.326 2.6 1.607 1.666 3.246 2.406 5.356 3.149.177.063.345.12.516.178-.784-1.63-1.374-3.271-3.203-4.537-3.463-2.397-7.384-2.174-9.231-6.462-.031-.072.052-.154.116-.09 3.341 3.363 8.285 2.925 12.214 4.995-.212-.423-.411-.85-.581-1.286-.848-2.179-.682-4.688-2.088-6.605-1.534-2.092-4.097-3.222-6.591-3.613-.116-.018-.077-.185.026-.193 3.408-.275 7.313.955 8.939 4.239 1.079 2.18.83 4.715 1.924 6.967 1.109 2.282 2.834 4.157 4.335 6.175a.576.576 0 0 1 .087.188c.411.351.854.685 1.386.976 2.165 1.186 4.424 2.018 6.475 3.45 3.829 2.674 4.705 5.875 5.189 10.335C-5.885-7.182-1.297-4.857.54-.227.663.084.153.294 0 0" clip-path="url(#ak)"></path><path transform="matrix(1.2167 0 0 -1.2167 234.84 72.6)" d="M0 0c.048.187-.215.304-.315.133-1.029-1.78-1.429-3.505-1.78-5.522-.716-4.107-2.904-6.054-6.239-8.203-1.554-1.001-2.705-2.18-3.828-3.638-2.292-2.974-4.161-4.97-7.364-7.051-.427-.277-.291-1.033.273-1.008 6.719.288 9.908 5.746 14.661 9.618 1.895 1.544 3.44 2.896 4.116 5.37C.445-6.928-.879-3.422 0 0" clip-path="url(#aj)"></path><path transform="matrix(1.2167 0 0 -1.2167 267.79 26.052)" d="M0 0c-.006.378-.59.481-.676.092-.591-2.646.607-4.019 1.055-6.587.707-4.049-2.371-6.22-3.51-9.648-.716-2.154-.572-3.932.07-6.06.618-2.054 1.014-1.47 1.212-4.275.238-3.369-1.084-4.581-3.365-7.069-.148-.161.04-.426.239-.309 2.56 1.509 5.523 3.429 7.042 6.072 1.579 2.746.322 3.646-.191 6.336-.871 4.569 2.518 6.359 2.895 10.496C5.17-6.572.068-4.473 0 0" clip-path="url(#ai)"></path><path transform="matrix(1.2167 0 0 -1.2167 320.01 56.09)" d="M0 0c-2.212 2.676-5.856 3.534-6.476 7.13-.408 2.36.158 4.038-2.074 5.656-1.241.899-2.804 1.023-4.21 1.477-3.401 1.098-5.969 2.885-8.166 5.742-.116.15-.334.027-.255-.149 1.132-2.543 2.552-4.674 4.812-6.342 1.44-1.063 3.922-1.48 5.138-2.689.994-.99 1.208-1.846 1.19-2.701l-.032.026c-.074.053-.138-.056-.09-.116.045-.054.073-.106.113-.161-.063-.926-.336-1.866-.132-2.989.092-.504.236-.935.413-1.326-.613-1.315-1.516-2.614-1.546-4.133-.043-2.119 1.542-3.853 3.055-5.14.238-.202.666.062.464.358-1.408 2.054-2.42 3.992-1.276 6.436.148.317.291.627.426.938.594-.551 1.322-1.008 2.172-1.484 1.789-1 3.787-1.871 5.286-3.316 1.769-1.706 2.489-4.045 3.64-6.14.359-.655 1.448-.371 1.421.385C3.756-5.33 2.025-2.45 0 0" clip-path="url(#ah)"></path><path transform="matrix(1.2167 0 0 -1.2167 359.47 102.12)" d="M0 0c-2.16.176-3.826.479-5.332 2.159-1.297 1.446-.947 2.022-.625 3.82.255 1.421.491 2.63.138 4.07-.904 3.683-5.433 4.713-6.116 8.495-.067.37-.611.259-.628-.085-.119-2.408 1.129-4.16 2.102-6.275 1.172-2.543.913-5.033 1.537-7.652C-7.899.233-3.743-.019 0-.049c.032 0 .031.046 0 .049" clip-path="url(#ag)"></path><path transform="matrix(1.2167 0 0 -1.2167 362.33 92.898)" d="M0 0c-1.719.929-3.294 1.357-4.558 2.968-1.017 1.299-1.745 2.889-2.429 4.381-.02.045-.094.023-.091-.024.175-2.576.514-5.372 2.513-7.25.971-.913 2.217-1.202 3.428-1.667 2.276-.871 3.85-1.932 4.882-4.249.082-.184.358-.05.315.133C3.509-3.367 2.154-1.164 0 0" clip-path="url(#af)"></path><path transform="matrix(1.2167 0 0 -1.2167 373.15 127.85)" d="M0 0c-6.387-1.161-9.691-4.91-12.754-10.165-3.715-6.373-11.91-5.555-17.395-9.57-.276-.202-.039-.639.273-.468 5.517 3.026 12.509.537 17.773 4.288 1.938 1.381 3.169 3.277 4.137 5.427.996 2.211 1.498 4.207 3.35 5.899C-3.054-3.162-1.098-2.267.55-.946 1.036-.556.491.089 0 0" clip-path="url(#ae)"></path><path transform="matrix(1.2167 0 0 -1.2167 445.63 156.97)" d="M0 0c-.769 2.178-2.166 2.215-3.903 3.445-2.776 1.967-2.098 5.785-4.618 8.145-1.029.963-2.37 1.384-3.46 2.217-3.611 2.762-2.261 2.822-3.583 5.708-1.129 2.463-3.259 3.666-5.549 4.965-.121.068-.249-.093-.149-.194 3.064-3.08 2.819-5.943 4.148-9.501.838-2.243 2.787-3.42 4.596-4.785C-9.861 7.995-9.78 4.921-7.4 2.794c1.751-1.566 4.33-2.439 6.352-3.6C-.539-1.098.214-.606 0 0" clip-path="url(#ad)"></path><path transform="matrix(1.2167 0 0 -1.2167 409.74 150.47)" d="M0 0c-1.949 3.104-5.326 2.384-4.548 7.431.048.309-.367.434-.474.13-1.011-2.845-1.261-4.634.934-6.913.501-.519 1.122-.954 1.527-1.562.65-.974.465-1.784.444-2.871-.023-1.173.08-1.797 1.147-2.328.4-.199.83-.027.976.397C.623-3.922 1.068-1.702 0 0" clip-path="url(#ac)"></path><path transform="matrix(1.2167 0 0 -1.2167 306.44 121.42)" d="M0 0c-1.494-3.783-4.471-4.322-6.919-6.951-1.563-1.68-1.262-3.203-1.959-5.227-1.668-4.837-8.161-5.011-9.082-10.582-.026-.157.179-.267.27-.114 2.835 4.791 10.388 3.829 12.424 9.443.337.928.234 1.905.517 2.827.551 1.795 1.888 2.792 2.827 4.313C-.799-4.474.281-2.298.806-.222.942.311.194.49 0 0" clip-path="url(#ab)"></path><path transform="matrix(1.2167 0 0 -1.2167 266.53 142.32)" d="M0 0c.18.646.182 1.235.015 1.887-.43 1.676-.755 2.753-.531 4.521.041.32-.455.427-.596.161-.643-1.219-.561-2.161-.753-3.49-.292-2.009-1.659-3.262-2.134-5.152-.626-2.495.44-4.699 2.606-5.949.31-.179.71.187.505.505-.915 1.414-1.229 3.187-.555 4.783C-1.04-1.778-.284-1.017 0 0" clip-path="url(#aa)"></path><path transform="matrix(1.2167 0 0 -1.2167 249.72 153.09)" d="M0 0c-1.742 1.473-2.071 3.394-1.009 5.53.411.826.837 1.311.684 2.309-.104.678-.414 1.163-.891 1.67-1.382 1.466-2.51 1.95-2.184 4.368.035.257-.296.451-.449.19-.611-1.042-.925-2.083-.819-3.293.056-.636.229-1.132.437-1.718.469-1.316.712-1.454.26-2.813-1.15-3.458.445-5.429 3.494-6.861C-.103-.794.367-.31 0 0" clip-path="url(#z)"></path><path transform="matrix(1.2167 0 0 -1.2167 199.85 151.49)" d="M0 0c.243.934.795 1.81 1.135 2.716.583 1.553.747 2.868-.294 4.25-.19.252-.65.2-.642-.174C.268 3.83-3.057 2.233-2.744-.887c.196-1.951 1.606-3.368 3.563-3.358.5.003.794.651.417 1.008C.281-2.332-.342-1.311 0 0" clip-path="url(#y)"></path><path transform="matrix(1.2167 0 0 -1.2167 256.06 66.382)" d="M0 0c-1.669-1.798-2.541-3.517-3.13-5.878-.295-1.183-.024-2.455-.664-3.583-.783-1.379-3.219-2.171-4.589-2.898-4.212-2.236-7.046-5.505-5.539-10.472.042-.137.232-.105.242.032.256 3.681 4.172 5.916 7.113 7.333 1.374.661 2.946 1.255 3.922 2.511.712.917.995 1.728.988 2.916-.005.925-.527 1.805-.597 2.721-.2 2.629.941 5.045 2.532 7.04C.432-.085.176.19 0 0" clip-path="url(#x)"></path></g><text transform="translate(-235.68 -157.16)" x="500.334" y="354.416" fill="#000000" font-family="Serif" font-size="51.405px" font-weight="400" stroke-width="1.6653" text-align="center" text-anchor="middle" xml-space="preserve"><tspan x="500.334" y="354.416">MOJAVE VALLEY</tspan><tspan x="500.334" y="418.672">FINANCIAL SERVICES</tspan></text></svg>
